FFmpeg version SVN-r25716, Copyright (c) 2000-2010 the FFmpeg developers  built on Nov 10 2010 12:23:18 with gcc 4.1.2 20080704 (Red Hat 4.1.2-48)  configuration: --enable-libmp3lame --enable-shared --disable-mmx --arch=x86_64  libavutil     50.33. 0 / 50.33. 0  libavcore      0.12. 1 /  0.12. 1  libavcodec    52.94. 4 / 52.94. 4  libavformat   52.84. 0 / 52.84. 0  libavdevice   52. 2. 2 / 52. 2. 2  libavfilter    1.59. 0 /  1.59. 0  libswscale     0.12. 0 /  0.12. 0Input #0, avi, from '/RAID10/data/converted_video_files/47383.avi':  Duration: 00:00:10.00, start: 0.000000, bitrate: 20981 kb/s    Stream #0.0: Video: msvideo1, rgb555le, 1024x1024, 20 tbr, 20 tbn, 20 tbc[buffer @ 0xb504440] w:1024 h:1024 pixfmt:rgb555le[ffsink @ 0xb521d50] auto-inserting filter 'auto-inserted scaler 0' between the filter 'src' and the filter 'out'[scale @ 0xb522040] w:1024 h:1024 fmt:rgb555le -> w:1024 h:1024 fmt:yuv420p flags:0x4Output #0, flv, to '/RAID10/data/converted_video_files/47383.flv':  Metadata:    encoder         : Lavf52.84.0    Stream #0.0: Video: flv, yuv420p, 1024x1024, q=2-31, 600 kb/s, 1k tbn, 24 tbcStream mapping:  Stream #0.0 -> #0.0Press [q] to stop encodingframe=    7 fps=  0 q=9.5 size=     505kB time=0.33 bitrate=12393.5kbits/s    frame=   16 fps= 14 q=31.0 size=     564kB time=0.79 bitrate=5829.9kbits/s    frame=   27 fps= 16 q=31.0 size=     603kB time=1.33 bitrate=3705.1kbits/s    frame=   32 fps= 15 q=31.0 size=     612kB time=1.58 bitrate=3165.1kbits/s    frame=   42 fps= 16 q=31.0 size=     651kB time=2.08 bitrate=2557.4kbits/s    frame=   51 fps= 16 q=31.0 size=     686kB time=2.54 bitrate=2210.7kbits/s    frame=   61 fps= 16 q=24.8 size=     721kB time=3.04 bitrate=1942.3kbits/s    frame=   71 fps= 17 q=31.0 size=     731kB time=3.54 bitrate=1690.0kbits/s    frame=   83 fps= 17 q=31.0 size=     767kB time=4.12 bitrate=1524.1kbits/s    frame=   94 fps= 18 q=31.0 size=     803kB time=4.71 bitrate=1397.7kbits/s    frame=  105 fps= 18 q=31.0 size=     840kB time=5.25 bitrate=1311.0kbits/s    frame=  116 fps= 18 q=31.0 size=     882kB time=5.79 bitrate=1247.0kbits/s    frame=  125 fps= 18 q=31.0 size=     927kB time=6.25 bitrate=1215.4kbits/s    frame=  136 fps= 18 q=31.0 size=     972kB time=6.79 bitrate=1172.1kbits/s    frame=  145 fps= 18 q=24.8 size=    1006kB time=7.25 bitrate=1137.1kbits/s    frame=  156 fps= 18 q=31.0 size=    1024kB time=7.79 bitrate=1076.9kbits/s    frame=  167 fps= 18 q=31.0 size=    1064kB time=8.33 bitrate=1045.7kbits/s    frame=  171 fps= 18 q=31.0 size=    1095kB time=8.54 bitrate=1050.0kbits/s    frame=  182 fps= 18 q=31.0 size=    1157kB time=9.08 bitrate=1043.8kbits/s    frame=  193 fps= 18 q=24.8 size=    1199kB time=9.62 bitrate=1020.6kbits/s    frame=  200 fps= 18 q=31.0 Lsize=    1208kB time=10.00 bitrate= 989.7kbits/s    video:1205kB audio:0kB global headers:0kB muxing overhead 0.276429%